<svg id="visual" viewBox="0 0 900 600" width="900" height="600" xmlns="http://www.w3.org/2000/svg" xmlns:xlink="http://www.w3.org/1999/xlink" version="1.1"><rect width="900" height="600" fill="#FFFFFF"></rect><g><g transform="translate(337 427)"><path d="M185.6 -56.6C208.7 10.5 173.4 100.4 111.9 142.3C50.4 184.2 -37.4 178.2 -93.6 135.7C-149.8 93.3 -174.4 14.3 -153.6 -49.9C-132.7 -114.1 -66.4 -163.4 7.5 -165.9C81.3 -168.3 162.6 -123.8 185.6 -56.6Z" fill="#b3a498"></path></g><g transform="translate(877 235)"><path d="M71.1 -23C80.8 6.5 69.2 42.9 42.4 63.6C15.6 84.3 -26.5 89.3 -54.6 70.1C-82.7 50.8 -96.8 7.4 -85.4 -24.6C-74 -56.5 -37 -77 -3.1 -76C30.8 -74.9 61.5 -52.5 71.1 -23Z" fill="#b3a498"></path></g></g></svg>