<svg id="visual" viewBox="0 0 900 600" width="900" height="600" xmlns="http://www.w3.org/2000/svg" xmlns:xlink="http://www.w3.org/1999/xlink" version="1.1"><rect width="900" height="600" fill="#ffffff"></rect><g><g transform="translate(780 206)"><path d="M0 -85.9L67.2 -53.6L83.7 19.1L37.3 77.4L-37.3 77.4L-83.7 19.1L-67.2 -53.6Z" fill="#F7CACA"></path></g><g transform="translate(274 70)"><path d="M0 -63L49.3 -39.3L61.4 14L27.3 56.8L-27.3 56.8L-61.4 14L-49.3 -39.3Z" fill="#F7CACA"></path></g><g transform="translate(301 281)"><path d="M0 -62L48.5 -38.7L60.4 13.8L26.9 55.9L-26.9 55.9L-60.4 13.8L-48.5 -38.7Z" fill="#F7CACA"></path></g><g transform="translate(79 192)"><path d="M0 -37L28.9 -23.1L36.1 8.2L16.1 33.3L-16.1 33.3L-36.1 8.2L-28.9 -23.1Z" fill="#F7CACA"></path></g></g></svg>