<svg id="visual" viewBox="0 0 300 50" width="300" height="50" xmlns="http://www.w3.org/2000/svg" xmlns:xlink="http://www.w3.org/1999/xlink" version="1.1"><path d="M0 25L6.3 25.3C12.7 25.7 25.3 26.3 37.8 24.2C50.3 22 62.7 17 75.2 18C87.7 19 100.3 26 112.8 26.5C125.3 27 137.7 21 150.2 17.7C162.7 14.3 175.3 13.7 187.8 13.2C200.3 12.7 212.7 12.3 225.2 15.3C237.7 18.3 250.3 24.7 262.8 26.8C275.3 29 287.7 27 293.8 26L300 25L300 0L293.8 0C287.7 0 275.3 0 262.8 0C250.3 0 237.7 0 225.2 0C212.7 0 200.3 0 187.8 0C175.3 0 162.7 0 150.2 0C137.7 0 125.3 0 112.8 0C100.3 0 87.7 0 75.2 0C62.7 0 50.3 0 37.8 0C25.3 0 12.7 0 6.3 0L0 0Z" fill="#000" fill-opacity="0.5" stroke-linecap="round" stroke-linejoin="miter"></path></svg>